<svg width="1600" height="1000" viewBox="0 0 1600 1000" fill="none" xmlns="http://www.w3.org/2000/svg">
  <rect width="1600" height="1000" fill="url(#bg)"/>
  <circle cx="1348" cy="176" r="260" fill="#C7DDF1" fill-opacity="0.7"/>
  <circle cx="1456" cy="804" r="336" fill="#D8E8F5" fill-opacity="0.76"/>
  <circle cx="338" cy="902" r="320" fill="#CDDEF0" fill-opacity="0.5"/>
  <path d="M860 138C860 106.52 885.52 81 917 81H1397C1428.48 81 1454 106.52 1454 138V796C1454 827.48 1428.48 853 1397 853H917C885.52 853 860 827.48 860 796V138Z" fill="#F7FBFF" fill-opacity="0.84"/>
  <path d="M146 198C146 160.445 176.445 130 214 130H676C713.555 130 744 160.445 744 198V828C744 865.555 713.555 896 676 896H214C176.445 896 146 865.555 146 828V198Z" fill="#EEF5FB" fill-opacity="0.96"/>

  <!-- Assessment card: a guided range-of-motion / goniometer diagram, not a UI mockup -->
  <rect x="922" y="194" width="458" height="548" rx="44" fill="white"/>
  <g transform="translate(1151,404)">
    <circle r="150" fill="none" stroke="#DCEBF7" stroke-width="18"/>
    <line x1="0" y1="-150" x2="0" y2="-174" stroke="#BBD9EE" stroke-width="6" stroke-linecap="round"/>
    <line x1="75" y1="-129.9" x2="87" y2="-150.7" stroke="#BBD9EE" stroke-width="6" stroke-linecap="round"/>
    <line x1="129.9" y1="-75" x2="150.7" y2="-87" stroke="#BBD9EE" stroke-width="6" stroke-linecap="round"/>
    <line x1="150" y1="0" x2="174" y2="0" stroke="#BBD9EE" stroke-width="6" stroke-linecap="round"/>
    <line x1="0" y1="0" x2="0" y2="150" stroke="#9DC1E1" stroke-width="18" stroke-linecap="round"/>
    <line x1="0" y1="0" x2="123" y2="-86" stroke="#0A77A8" stroke-width="18" stroke-linecap="round"/>
    <path d="M0 84A84 84 0 0 1 68.9 -48.2" fill="none" stroke="#2380C8" stroke-width="10" stroke-linecap="round"/>
    <circle r="17" fill="#0A77A8"/>
    <circle r="17" fill="none" stroke="white" stroke-width="4"/>
  </g>
  <rect x="1031" y="628" width="240" height="46" rx="23" fill="#0A77A8" fill-opacity="0.1"/>
  <text x="1057" y="657" font-size="20" font-family="Arial, Helvetica, sans-serif" fill="#0A77A8" font-weight="700">Guided Mobility</text>

  <!-- Practitioner avatar card: a second, smaller figure suggesting a consultation -->
  <g opacity="0.98">
    <rect x="516" y="266" width="138" height="196" rx="38" fill="#FBFDFF"/>
    <circle cx="585" cy="330" r="42" fill="#D2E3F1"/>
    <path d="M551 398C558 375 572 364 585 364C598 364 612 375 619 398V430C619 442 610 452 598 452H572C560 452 551 442 551 430V398Z" fill="#9DC2E3"/>
  </g>

  <!-- Patient figure: an assisted stretch — raised arm, motion arcs, joint markers, a supporting hand -->
  <g>
    <ellipse cx="375" cy="700" rx="150" ry="24" fill="#0A77A8" fill-opacity="0.07"/>
    <path d="M470 330C500 300 500 250 476 214" stroke="#9DC1E1" stroke-width="6" stroke-linecap="round" fill="none" stroke-dasharray="2 14" opacity="0.7"/>
    <path d="M494 356C534 326 540 266 512 220" stroke="#9DC1E1" stroke-width="6" stroke-linecap="round" fill="none" stroke-dasharray="2 14" opacity="0.45"/>
    <path d="M431 392C452 360 470 320 460 276" stroke="#0A77A8" stroke-width="24" stroke-linecap="round" fill="none"/>
    <path d="M338 433C356 398 394 382 431 392C454 398 472 415 486 443V551C486 584 459 611 426 611H324C291 611 264 584 264 551V448C281 421 304 406 338 433Z" fill="#8CB6DA"/>
    <circle cx="375" cy="384" r="78" fill="#B5D0E7"/>
    <ellipse cx="452" cy="404" rx="26" ry="18" fill="#0A77A8" fill-opacity="0.28" transform="rotate(-18 452 404)"/>
    <circle cx="431" cy="392" r="10" fill="#0A77A8"/>
    <circle cx="375" cy="600" r="10" fill="#0A77A8"/>
  </g>

  <defs>
    <linearGradient id="bg" x1="96" y1="88" x2="1484" y2="930" gradientUnits="userSpaceOnUse">
      <stop stop-color="#D6E5F3"/>
      <stop offset="0.52" stop-color="#E7F0F8"/>
      <stop offset="1" stop-color="#EEF5FB"/>
    </linearGradient>
  </defs>
</svg>
